<svg xmlns="http://www.w3.org/2000/svg" xmlns:xlink="http://www.w3.org/1999/xlink" width="354" height="210" viewBox="0 0 354 210">
  <defs>
    <clipPath id="clip-path">
      <rect id="bg" width="354" height="210" transform="translate(0 110.977)" fill="#d47fa6"/>
    </clipPath>
  </defs>
  <g id="heading-blue-bg" transform="translate(0 -110.977)" clip-path="url(#clip-path)">
    <path id="path" d="M14.441,349.982c19.789-1,20.254-24.714,40-25s24.866,29.859,40,30,30.017-42.286,53-44,33.441,22.241,59,22,41.892-35.1,71-37,36.887,25.809,62,25,39.335-77.194,83-81,50.537,49.573,95,50,24.4,24.1,67,25,107,76,107,76h-707Z" transform="translate(-574.441 -70.006)" fill="#ffc1dd" opacity="0.177"/>
    <path id="path-2" data-name="path" d="M845.064,349.982c-25.157-.993-25.9-24.714-51-25s-31.761,29.859-51,30-37.783-42.291-67-44-42.508,21.24-75,21-54-34.1-91-36-46.075,25.807-78,25-50.49-77.2-106-81-64.476,49.574-121,50-30.85,24.1-85,25-136,76-136,76h899Z" transform="translate(-221.064 -70.006)" fill="#fff" opacity="0.159"/>
  </g>
</svg>
