<svg xmlns="http://www.w3.org/2000/svg" xmlns:xlink="http://www.w3.org/1999/xlink" width="561" height="210" viewBox="0 0 561 210">
  <defs>
    <filter id="bg" x="-20" y="-20" width="621" height="270" filterUnits="userSpaceOnUse">
      <feOffset dx="10" dy="10" input="SourceAlpha"/>
      <feGaussianBlur stdDeviation="10" result="blur"/>
      <feFlood flood-opacity="0.149"/>
      <feComposite operator="in" in2="blur"/>
      <feComposite in="SourceGraphic"/>
    </filter>
    <clipPath id="clip-path">
      <g transform="matrix(1, 0, 0, 1, 0, 0)" filter="url(#bg)">
        <path id="bg-2" data-name="bg" d="M80,0H561a0,0,0,0,1,0,0V210a0,0,0,0,1,0,0H80A80,80,0,0,1,0,130V80A80,80,0,0,1,80,0Z" transform="translate(0 0.07)" fill="#f15d5e"/>
      </g>
    </clipPath>
    <filter id="bg-3" x="-20" y="-20" width="621.484" height="270" filterUnits="userSpaceOnUse">
      <feOffset dx="10" dy="10" input="SourceAlpha"/>
      <feGaussianBlur stdDeviation="10" result="blur-2"/>
      <feFlood flood-opacity="0.149"/>
      <feComposite operator="in" in2="blur-2"/>
      <feComposite in="SourceGraphic"/>
    </filter>
    <clipPath id="clip-path-2">
      <path id="bg-4" data-name="bg" d="M0,0H563a0,0,0,0,1,0,0V321a0,0,0,0,1,0,0H80A80,80,0,0,1,0,241V0A0,0,0,0,1,0,0Z" transform="translate(0 0.069)" fill="#d47fa6"/>
    </clipPath>
  </defs>
  <g id="heading-red-mobile" transform="translate(0 -0.069)" clip-path="url(#clip-path)">
    <g transform="matrix(1, 0, 0, 1, 0, 0.07)" filter="url(#bg-3)">
      <path id="bg-5" data-name="bg" d="M561.484.069H118.959C52.98.069,0,35.886,0,80.069v50c0,44.183,52.98,80,118.959,80H561.484Z" transform="translate(0 -0.07)" fill="#f15d5e"/>
    </g>
    <g id="Mask_Group_115" data-name="Mask Group 115" transform="translate(0 -111)" clip-path="url(#clip-path-2)">
      <path id="path" d="M661.207,350.074c-19.789-1-20.254-24.714-40-25s-24.866,29.859-40,30-30.017-42.286-53-44-33.441,21.241-59,21-41.892-35.1-71-37-36.887,26.809-62,26-39.335-78.194-83-82-50.537,50.573-95,51-24.4,24.1-67,25-107,76-107,76h707Z" transform="translate(252.793 -70.006)" fill="#ffc1dd" opacity="0.177"/>
      <path id="path-2" data-name="path" d="M22.477,349.074c25.157-.993,25.9-23.714,51-24s31.761,29.859,51,30,37.783-43.291,67-45,42.509,22.24,75,22,54-35.1,91-37,46.075,26.807,78,26,50.49-78.2,106-82,64.476,50.574,121,51,30.85,24.1,85,25,136,76,136,76h-899Z" transform="translate(-292.477 -70.006)" fill="#fff" opacity="0.159"/>
    </g>
  </g>
</svg>
