<svg xmlns="http://www.w3.org/2000/svg" xmlns:xlink="http://www.w3.org/1999/xlink" width="1766" height="768.287" viewBox="0 0 1766 768.287">
  <defs>
    <linearGradient id="linear-gradient" x1="0.745" y1="0.203" x2="0.865" y2="1.01" gradientUnits="objectBoundingBox">
      <stop offset="0" stop-color="#090743"/>
      <stop offset="1" stop-color="#434398"/>
    </linearGradient>
    <clipPath id="clip-path">
      <rect id="Rectangle_805" data-name="Rectangle 805" width="816" height="635" transform="translate(650.126 104)" fill="#fff" stroke="#707070" stroke-width="1"/>
    </clipPath>
    <linearGradient id="linear-gradient-2" x1="0" y1="0.5" x2="1" y2="0.5" xlink:href="#linear-gradient"/>
  </defs>
  <g id="home-top-websmall" transform="translate(18737.125 2407)">
    <rect id="Rectangle_804" data-name="Rectangle 804" width="1766" height="768" transform="translate(-18737.125 -2407)" fill="url(#linear-gradient)"/>
    <path id="Path_1356" data-name="Path 1356" d="M-3097.184,1418.3q-2.239,0-4.451.114a109.138,109.138,0,0,0-98.309-61.7,109.155,109.155,0,0,0-99.045,63.256,88.33,88.33,0,0,0-17.1-1.667,87.7,87.7,0,0,0-87.7,87.7h394.3A87.7,87.7,0,0,0-3097.184,1418.3Z" transform="translate(-14901.608 -3144.713)" fill="#44437e"/>
    <path id="Path_1357" data-name="Path 1357" d="M-3010.977,1447.54q-1.492,0-2.968.076a72.751,72.751,0,0,0-65.533-41.132,72.763,72.763,0,0,0-66.024,42.167,58.9,58.9,0,0,0-11.4-1.111,58.459,58.459,0,0,0-58.46,58.46h262.847A58.459,58.459,0,0,0-3010.977,1447.54Z" transform="translate(-14901.608 -3145.484)" fill="#655c90"/>
    <path id="Path_1358" data-name="Path 1358" d="M-3505.663,997.365q-1.951,0-3.878.1a95.071,95.071,0,0,0-85.64-53.752,95.088,95.088,0,0,0-86.281,55.1,76.907,76.907,0,0,0-14.9-1.453,76.4,76.4,0,0,0-76.4,76.4h343.494A76.4,76.4,0,0,0-3505.663,997.365Z" transform="translate(-13585.987 -2996.738)" fill="#655c90"/>
    <g id="Mask_Group_121" data-name="Mask Group 121" transform="translate(-18505.25 -2378)" clip-path="url(#clip-path)">
      <g id="Group_2745" data-name="Group 2745" transform="translate(639.355 131.317)">
        <path id="Path_1359" data-name="Path 1359" d="M-2311.039,1484.027l-42.061-99.591-1.271-3.009-34.411-81.465-30.414-72.022-35.838-84.83-2.069-4.906-5.5-13.008a6.02,6.02,0,0,0-5.866-3.694l-110.711,5.277-47.541,128.913a9.169,9.169,0,0,0,.029,6.319l86.034,226.222,29.444,77.4a41.641,41.641,0,0,0,38.706,26.67h100.334l8.72-13.734,11.717-18.47,41.319-65.105A16.729,16.729,0,0,0-2311.039,1484.027Zm-181.374,75.716c-.042-.1-.085-.214-.128-.342-.114-.257-.229-.585-.385-.97-.115-.3-.243-.642-.4-1.041-.214-.584-.485-1.27-.786-2.054-.156-.442-.342-.9-.527-1.383-.457-1.227-.985-2.61-1.584-4.165-.142-.386-.3-.784-.457-1.184-.457-1.212-.957-2.538-1.5-3.937-.271-.741-.572-1.512-.871-2.3-2.284-5.991-5.081-13.321-8.264-21.693-.571-1.483-1.142-3.009-1.741-4.564-.3-.77-.6-1.555-.9-2.367-2.84-7.431-5.937-15.546-9.206-24.145q-1.371-3.594-2.783-7.3-1.092-2.846-2.184-5.734c-.229-.585-.457-1.17-.671-1.769-.243-.627-.486-1.269-.728-1.9-.642-1.7-1.3-3.409-1.955-5.12-.741-1.968-1.513-3.979-2.283-5.989-4.211-11.039-8.578-22.52-13.017-34.144-.8-2.11-1.612-4.235-2.411-6.36q-1.221-3.167-2.427-6.362c-.828-2.139-1.627-4.264-2.441-6.389-2.826-7.445-5.666-14.89-8.478-22.263-1.613-4.207-3.212-8.4-4.781-12.536-.043-.129-.1-.271-.157-.4-.727-1.939-1.47-3.865-2.2-5.79-6.294-16.515-12.317-32.3-17.711-46.494-.642-1.668-1.271-3.308-1.885-4.934-1.955-5.148-3.824-10.055-5.594-14.676-.585-1.54-1.156-3.038-1.712-4.506-.572-1.483-1.114-2.909-1.642-4.321-.542-1.4-1.07-2.781-1.569-4.107-.072-.2-.158-.4-.229-.6-.428-1.127-.843-2.225-1.257-3.295-.342-.9-.671-1.783-1-2.639s-.642-1.7-.957-2.511a1.7,1.7,0,0,1-.1-.243c-.428-1.141-.842-2.238-1.256-3.295-1.413-3.693-2.613-6.859-3.6-9.441a22.087,22.087,0,0,1-.057-15.6l29.9-81.094,116.647,315.7a47.837,47.837,0,0,1,2,12.693,18.161,18.161,0,0,1-1.855,8.771l-2.455,3.75-32.27,49.417C-2492.27,1560.114-2492.327,1559.986-2492.413,1559.743Zm120.788-4.321-11.19,17.484h-93.77c-.2-.413-.157-.313-.371-.7l32.826-50.288,4.767-7.3c1.984-2.538,5.752-6.489,10.433-6.489h87.576Zm-57.218-66.8c-5.567-.328-8.735-5.463-9.99-8.158l-123-332.874a1.7,1.7,0,0,1,1.527-2.281l80.239-3.807a4.591,4.591,0,0,1,4.453,2.8l3.4,8.058,22.593,53.482,54.92,130.026,23.736,56.207,40.818,96.652Z" transform="translate(3084.657 -942.444)" fill="url(#linear-gradient-2)"/>
        <path id="Path_1360" data-name="Path 1360" d="M-2732.887,934a22.94,22.94,0,0,0-11.175,3.023l-90.544,60.057-38.164,25.315a12.045,12.045,0,0,0-4.538,5.534l-15.614,38.25-52.252,128.073-9.548,23.4-8.706,21.336-11.147,27.3L-3020.8,1379.6l-3.511,8.6-14.743,36.14-5.1,12.479-43.886,107.55v-.029l-17.841,43.727h5.223c.043,0,.072.043.129.043,0,0,1.77-.014,4.938-.043h6.694v-.029c30.4-.185,111.909-.684,142.3-.856a66.794,66.794,0,0,0,42.46-15.574l108.47-90.863c4.01-3.4,7.535-5.777,9.206-10.183l186.025-493.634L-2584.255,934Zm-233.894,364.249,14.771-36.154,10.461-25.6,10.633-26,58.974-144.317,10.775-26.37a8.7,8.7,0,0,1,3.254-3.978l38.493-25.644,55.634-37.067c-.4.984-14.244,35.228-34.354,84.916v.014q-1.605,4-3.283,8.129c-55.833,138.042-154.112,380.994-154.355,381.635l-2.227,5.534c-2.826,6.346-7.749,15.417-14.714,20.494,0,0,.243-.115.328-.143l-94.125,68.614,44.829-109.7,4.04-9.9h.014m100.891,134.134a46.9,46.9,0,0,1-29.786,10.938c-30.843.172-88.29.542-123.028.771l111.124-81.022c8.15-4.693,18.412-3.751,18.412-3.751h110.482Zm286.046-555.56c-.328.841-.642,1.711-.984,2.581-3.112,8.286-6.694,17.8-10.633,28.3-.415,1.1-.829,2.2-1.242,3.309q-1.134,2.952-2.283,6.033c-.828,2.211-1.671,4.479-2.541,6.76-5.038,13.378-10.518,27.968-16.342,43.428q-2.312,6.161-4.7,12.494c-3.183,8.443-6.452,17.114-9.762,25.943q-2.377,6.311-4.8,12.721c-.129.328-.243.656-.372,1q-1.67,4.449-3.368,8.942-2.827,7.509-5.68,15.089c-.942,2.51-1.885,5.006-2.826,7.53-.586,1.541-1.171,3.081-1.741,4.621-1.029,2.738-2.056,5.477-3.112,8.229-1.284,3.451-2.6,6.9-3.882,10.354-1.171,3.109-2.355,6.219-3.511,9.328-9.391,24.9-18.8,49.917-27.874,74.019-.572,1.512-1.142,3.009-1.7,4.506-5.452,14.448-10.761,28.552-15.857,42.087-.585,1.54-1.17,3.1-1.741,4.621s-1.156,3.052-1.727,4.578-1.142,3.023-1.7,4.521c-.142.357-.271.713-.4,1.056-.771,2.068-1.542,4.107-2.327,6.146v.014c-.756,2.04-1.527,4.051-2.283,6.048-7.792,20.693-14.858,39.462-20.866,55.35-.372,1.013-.757,2.011-1.128,3-2.113,5.6-4.082,10.839-5.895,15.631-.514,1.369-1.027,2.695-1.513,3.994-1.713,4.549-3.268,8.657-4.639,12.279h-.014l-5.638,14.861a6.547,6.547,0,0,1-5.923,3.708h-121.029a3.327,3.327,0,0,1-.4-.057h-10.3l5.1-12.75,198.457-490.682c1.527-2.852,4.81-7.187,10.433-7.473h90.772l-.014-.014h23.934l-5.138,13.763a2.842,2.842,0,0,0-.1.328.112.112,0,0,1-.014.043c-.029.072-.1.271-.229.584-.029.1-.072.214-.114.343-.529,1.4-1.613,4.278-3.2,8.486C-2623.718,982.7-2626.829,990.976-2630.7,1001.288Z" transform="translate(3105.88 -934)" fill="url(#linear-gradient-2)"/>
      </g>
    </g>
    <path id="Path_1361" data-name="Path 1361" d="M-3568.843,984.674q-1.489,0-2.961.076a72.583,72.583,0,0,0-65.382-41.037,72.6,72.6,0,0,0-65.872,42.07,58.724,58.724,0,0,0-11.376-1.109A58.325,58.325,0,0,0-3772.76,1043h262.243A58.325,58.325,0,0,0-3568.843,984.674Z" transform="translate(-14813.987 -3226.713)" fill="#44437e"/>
  </g>
</svg>
