<svg xmlns="http://www.w3.org/2000/svg" xmlns:xlink="http://www.w3.org/1999/xlink" width="2520" height="1080" viewBox="0 0 2520 1080">
  <defs>
    <linearGradient id="linear-gradient" x1="0.745" y1="0.203" x2="0.865" y2="1.01" gradientUnits="objectBoundingBox">
      <stop offset="0" stop-color="#090743"/>
      <stop offset="1" stop-color="#434398"/>
    </linearGradient>
    <clipPath id="clip-path">
      <rect id="Rectangle_807" data-name="Rectangle 807" width="1130.647" height="892.757" transform="translate(0)" fill="#fff" stroke="#707070" stroke-width="1"/>
    </clipPath>
    <linearGradient id="linear-gradient-2" x1="0" y1="0.5" x2="1" y2="0.5" xlink:href="#linear-gradient"/>
  </defs>
  <g id="home-top-webbig" transform="translate(17386.906 1496.512)">
    <rect id="Rectangle_806" data-name="Rectangle 806" width="2520" height="1080" transform="translate(-17386.906 -1496.512)" fill="url(#linear-gradient)"/>
    <path id="Path_1363" data-name="Path 1363" d="M-2976.432,1443.277q-3.122,0-6.2.16c-24.6-51.318-76.711-86.724-137.026-86.724-61.164,0-113.894,36.414-138.052,88.907a122.128,122.128,0,0,0-23.84-2.343c-67.51,0-122.236,55.185-122.236,123.261h549.6C-2854.2,1498.462-2908.921,1443.277-2976.432,1443.277Z" transform="translate(-13342.458 -1983.21)" fill="#44437e"/>
    <path id="Path_1364" data-name="Path 1364" d="M-2930.482,1464.189c-1.387,0-2.768.038-4.137.107a101.339,101.339,0,0,0-91.342-57.812,101.372,101.372,0,0,0-92.026,59.266,81.425,81.425,0,0,0-15.893-1.562c-45,0-81.483,36.787-81.483,82.167H-2849C-2849,1500.976-2885.479,1464.189-2930.482,1464.189Z" transform="translate(-13268.25 -1964.111)" fill="#655c90"/>
    <path id="Path_1365" data-name="Path 1365" d="M-3400.471,1019.122q-2.719,0-5.406.14c-21.426-44.7-66.824-75.549-119.368-75.549-53.283,0-99.217,31.722-120.262,77.451a106.338,106.338,0,0,0-20.769-2.042c-58.811,0-106.485,48.074-106.485,107.377h478.773C-3293.986,1067.2-3341.66,1019.122-3400.471,1019.122Z" transform="translate(-11654.014 -1942.706)" fill="#655c90"/>
    <g id="Mask_Group_122" data-name="Mask Group 122" transform="translate(-16126.907 -1309.269)" clip-path="url(#clip-path)">
      <g id="Group_2746" data-name="Group 2746" transform="translate(-15.143 38.406)">
        <path id="Path_1366" data-name="Path 1366" d="M-2182.679,1631.185l-59.134-140.017-1.787-4.23-48.379-114.533-42.759-101.257-50.385-119.264-2.909-6.9-7.726-18.287a8.463,8.463,0,0,0-8.247-5.193l-155.651,7.419-66.839,181.241a12.893,12.893,0,0,0,.04,8.884L-2505.5,1637.1l41.4,108.817a58.542,58.542,0,0,0,54.417,37.5h141.062l12.26-19.309,16.474-25.967,58.091-91.533A23.519,23.519,0,0,0-2182.679,1631.185Zm-255,106.451c-.059-.139-.12-.3-.18-.481-.159-.361-.321-.823-.542-1.364-.161-.422-.341-.9-.561-1.463-.3-.822-.682-1.786-1.1-2.888-.22-.622-.481-1.264-.741-1.944-.642-1.725-1.385-3.669-2.228-5.855-.2-.542-.422-1.1-.642-1.664-.642-1.7-1.345-3.569-2.107-5.534-.382-1.042-.8-2.125-1.224-3.228-3.211-8.422-7.144-18.728-11.618-30.5-.8-2.085-1.6-4.23-2.448-6.416-.422-1.082-.843-2.186-1.264-3.328-3.993-10.447-8.347-21.856-12.943-33.946q-1.927-5.053-3.912-10.266-1.536-4-3.07-8.061c-.321-.823-.643-1.645-.943-2.486-.341-.882-.683-1.784-1.024-2.667-.9-2.387-1.826-4.793-2.749-7.2-1.042-2.767-2.127-5.594-3.21-8.421-5.919-15.521-12.06-31.661-18.3-48-1.123-2.967-2.267-5.955-3.39-8.942q-1.717-4.453-3.411-8.944c-1.165-3.007-2.288-5.995-3.431-8.982-3.973-10.467-7.966-20.934-11.919-31.3-2.268-5.914-4.516-11.809-6.722-17.624-.06-.181-.141-.381-.221-.562-1.022-2.726-2.067-5.434-3.09-8.14-8.849-23.219-17.316-45.416-24.9-65.367-.9-2.346-1.787-4.651-2.65-6.937-2.749-7.238-5.377-14.136-7.865-20.633-.822-2.166-1.626-4.271-2.407-6.336-.8-2.085-1.566-4.089-2.309-6.075-.762-1.964-1.5-3.91-2.206-5.775-.1-.281-.222-.561-.322-.842-.6-1.584-1.185-3.128-1.767-4.632-.481-1.263-.943-2.507-1.4-3.71s-.9-2.387-1.345-3.53a2.4,2.4,0,0,1-.14-.341c-.6-1.6-1.184-3.147-1.765-4.632-1.987-5.192-3.673-9.644-5.057-13.273a31.048,31.048,0,0,1-.081-21.936l42.037-114.011,164,443.85a67.258,67.258,0,0,1,2.809,17.846c0,4.391-.642,8.822-2.607,12.332l-3.452,5.273-45.369,69.477C-2437.474,1738.157-2437.554,1737.977-2437.675,1737.636Zm169.817-6.075-15.732,24.582h-131.832c-.281-.58-.22-.44-.521-.982l46.15-70.7,6.7-10.266c2.789-3.569,8.087-9.123,14.668-9.123H-2225.3Zm-80.444-93.918c-7.826-.462-12.28-7.681-14.045-11.47l-172.927-467.993a2.393,2.393,0,0,1,2.147-3.208l112.809-5.353a6.455,6.455,0,0,1,6.26,3.93l4.776,11.329,31.764,75.191,77.213,182.805,33.371,79.023,57.387,135.885Z" transform="translate(3270.321 -869.765)" fill="url(#linear-gradient-2)"/>
        <path id="Path_1367" data-name="Path 1367" d="M-2581.483,934a32.253,32.253,0,0,0-15.711,4.251l-127.3,84.435-53.656,35.591a16.933,16.933,0,0,0-6.38,7.781l-21.952,53.776-73.461,180.06-13.423,32.9-12.24,30-15.671,38.378-64.993,159.306-4.937,12.092-20.727,50.809-7.164,17.544-61.7,151.206v-.04l-25.083,61.476h7.343c.061,0,.1.061.181.061,0,0,2.489-.02,6.943-.061H-3082v-.04c42.74-.26,157.335-.961,200.056-1.2a93.906,93.906,0,0,0,59.695-21.9l152.5-127.745c5.638-4.773,10.594-8.122,12.943-14.316l261.535-694.008L-2372.519,934Zm-328.835,512.1,20.767-50.829,14.708-35.991,14.949-36.553,82.912-202.9,15.149-37.075a12.222,12.222,0,0,1,4.575-5.593l54.118-36.053L-2624.924,989c-.563,1.384-20.026,49.527-48.3,119.385v.02q-2.257,5.623-4.615,11.428c-78.5,194.075-216.669,535.645-217.01,536.547l-3.131,7.781c-3.973,8.922-10.895,21.675-20.687,28.813,0,0,.341-.161.461-.2l-132.333,96.466,63.025-154.232,5.679-13.916h.02m141.844,188.581a65.938,65.938,0,0,1-41.876,15.378c-43.362.242-124.128.763-172.967,1.084l156.231-113.91c11.458-6.6,25.885-5.274,25.885-5.274h155.328Zm402.157-781.071c-.461,1.183-.9,2.406-1.384,3.629-4.375,11.65-9.411,25.025-14.948,39.781-.583,1.544-1.165,3.088-1.747,4.652q-1.594,4.151-3.21,8.481c-1.164,3.108-2.349,6.3-3.573,9.5-7.084,18.808-14.787,39.321-22.975,61.056q-3.251,8.662-6.6,17.565c-4.476,11.87-9.071,24.061-13.725,36.473q-3.341,8.873-6.742,17.885c-.181.462-.342.922-.523,1.4q-2.347,6.255-4.735,12.572-3.974,10.557-7.986,21.214c-1.325,3.529-2.649,7.038-3.973,10.586-.824,2.166-1.646,4.331-2.448,6.5-1.446,3.849-2.89,7.7-4.375,11.569-1.806,4.852-3.652,9.7-5.458,14.556-1.646,4.372-3.311,8.743-4.937,13.115-13.2,35.008-26.426,70.179-39.188,104.065-.8,2.125-1.605,4.23-2.388,6.336-7.665,20.312-15.13,40.142-22.294,59.171-.823,2.166-1.645,4.351-2.448,6.5s-1.626,4.291-2.428,6.436c-.8,2.125-1.605,4.251-2.387,6.356-.2.5-.382,1-.562,1.485-1.085,2.907-2.167,5.775-3.272,8.641v.02c-1.063,2.868-2.147,5.7-3.21,8.5-10.956,29.093-20.889,55.48-29.336,77.817-.523,1.425-1.064,2.828-1.585,4.212-2.971,7.88-5.738,15.239-8.287,21.976-.723,1.925-1.444,3.789-2.127,5.615-2.408,6.4-4.595,12.171-6.522,17.263h-.02l-7.926,20.893a9.2,9.2,0,0,1-8.327,5.213h-170.157a4.644,4.644,0,0,1-.562-.081h-14.488l7.164-17.925,279.014-689.858c2.147-4.009,6.762-10.1,14.668-10.506H-2446.2l-.02-.02h33.65l-7.223,19.35a3.943,3.943,0,0,0-.141.461.158.158,0,0,1-.02.06c-.041.1-.141.381-.321.822-.04.141-.1.3-.16.482-.743,1.964-2.268,6.015-4.5,11.93C-2428,1002.474-2432.374,1014.1-2437.812,1028.6Z" transform="translate(3105.88 -934)" fill="url(#linear-gradient-2)"/>
      </g>
    </g>
    <path id="Path_1368" data-name="Path 1368" d="M-3488.534,1001.284c-1.384,0-2.761.038-4.127.107a101.105,101.105,0,0,0-91.132-57.678,101.141,101.141,0,0,0-91.814,59.13,81.2,81.2,0,0,0-15.856-1.559c-44.9,0-81.3,36.7-81.3,81.978h365.523C-3407.237,1037.987-3443.634,1001.284-3488.534,1001.284Z" transform="translate(-13379.642 -2263.13)" fill="#44437e"/>
  </g>
</svg>
