<svg id="home-top-mobile" xmlns="http://www.w3.org/2000/svg" xmlns:xlink="http://www.w3.org/1999/xlink" width="630" height="844" viewBox="0 0 630 844">
  <defs>
    <linearGradient id="linear-gradient" x1="0.745" y1="0.203" x2="0.865" y2="1.01" gradientUnits="objectBoundingBox">
      <stop offset="0" stop-color="#090743"/>
      <stop offset="1" stop-color="#434398"/>
    </linearGradient>
    <clipPath id="clip-path">
      <rect id="Rectangle_803" data-name="Rectangle 803" width="558.816" height="409.708" transform="translate(-25 0)" fill="#fff" stroke="#707070" stroke-width="1"/>
    </clipPath>
    <linearGradient id="linear-gradient-2" x1="0" y1="0.5" x2="1" y2="0.5" xlink:href="#linear-gradient"/>
  </defs>
  <rect id="Rectangle_802" data-name="Rectangle 802" width="630" height="844" fill="url(#linear-gradient)"/>
  <path id="Path_1346" data-name="Path 1346" d="M-3618.76,974.647q-1.125,0-2.236.057a54.816,54.816,0,0,0-49.378-30.992,54.825,54.825,0,0,0-49.747,31.772,44.337,44.337,0,0,0-8.592-.838,44.048,44.048,0,0,0-44.048,44.049h198.049A44.048,44.048,0,0,0-3618.76,974.647Z" transform="translate(4159.877 -352.554)" fill="#655c90"/>
  <g id="Mask_Group_114" data-name="Mask Group 114" transform="translate(69 433.118)" clip-path="url(#clip-path)">
    <g id="Group_2741" data-name="Group 2741" transform="translate(-7.117 19.051)">
      <path id="Path_1347" data-name="Path 1347" d="M-2423.616,1354.625l-27.087-64.043-.818-1.935-22.161-52.387-19.586-46.315-23.08-54.551-1.333-3.155-3.539-8.365A3.877,3.877,0,0,0-2525,1121.5l-71.3,3.394-30.616,82.9a5.886,5.886,0,0,0,.018,4.063l55.406,145.474,18.962,49.772a26.815,26.815,0,0,0,24.927,17.151h64.615l5.617-8.832,7.546-11.877,26.609-41.867A10.741,10.741,0,0,0-2423.616,1354.625Zm-116.8,48.69c-.027-.064-.054-.138-.082-.22-.073-.165-.146-.376-.248-.624-.073-.193-.156-.413-.257-.669-.137-.376-.312-.817-.506-1.321-.1-.285-.22-.578-.34-.889-.295-.789-.635-1.678-1.021-2.678-.092-.248-.193-.5-.294-.761-.295-.779-.616-1.632-.966-2.531-.174-.476-.368-.972-.561-1.476-1.471-3.852-3.272-8.566-5.322-13.95-.368-.954-.736-1.935-1.122-2.935-.193-.5-.386-1-.579-1.522-1.829-4.778-3.824-10-5.929-15.527q-.882-2.311-1.792-4.7-.7-1.83-1.406-3.687c-.148-.376-.294-.752-.432-1.137-.156-.4-.313-.816-.469-1.22-.413-1.092-.836-2.192-1.259-3.293-.477-1.266-.974-2.559-1.47-3.851-2.712-7.1-5.524-14.482-8.383-21.957-.514-1.357-1.038-2.724-1.552-4.09s-1.048-2.724-1.563-4.091c-.533-1.376-1.048-2.742-1.572-4.108-1.82-4.787-3.649-9.575-5.46-14.317-1.039-2.7-2.068-5.4-3.079-8.061-.028-.083-.065-.174-.1-.257-.468-1.246-.947-2.485-1.415-3.723-4.053-10.62-7.933-20.773-11.406-29.9-.414-1.073-.819-2.127-1.214-3.173-1.259-3.311-2.462-6.466-3.6-9.437-.376-.99-.744-1.953-1.1-2.9s-.717-1.871-1.057-2.779-.689-1.788-1.01-2.641c-.046-.128-.1-.257-.147-.385-.276-.725-.542-1.431-.809-2.119-.22-.578-.432-1.146-.643-1.7s-.414-1.092-.616-1.614a1.139,1.139,0,0,1-.064-.156c-.275-.734-.542-1.439-.808-2.119-.91-2.375-1.683-4.411-2.316-6.071a14.186,14.186,0,0,1-.037-10.033l19.256-52.148,75.121,203.015a30.717,30.717,0,0,1,1.287,8.162,11.662,11.662,0,0,1-1.195,5.641l-1.581,2.412-20.782,31.778C-2540.328,1403.553-2540.364,1403.471-2540.42,1403.315Zm77.787-2.779-7.206,11.244h-60.387c-.129-.265-.1-.2-.239-.449l21.14-32.338,3.069-4.7c1.278-1.632,3.7-4.173,6.719-4.173h56.4Zm-36.848-42.958c-3.585-.211-5.626-3.513-6.434-5.246l-79.211-214.058a1.1,1.1,0,0,1,.984-1.467l51.674-2.448a2.957,2.957,0,0,1,2.867,1.8l2.188,5.182,14.55,34.392,35.368,83.614,15.286,36.144,26.287,62.153Z" transform="translate(2921.824 -1006.355)" fill="url(#linear-gradient-2)"/>
      <path id="Path_1348" data-name="Path 1348" d="M-2865.673,934a14.794,14.794,0,0,0-7.2,1.944l-58.31,38.62-24.577,16.279a7.747,7.747,0,0,0-2.923,3.559l-10.056,24.6-33.65,82.359-6.148,15.05-5.607,13.72-7.179,17.554-29.771,72.866-2.261,5.53-9.495,23.24-3.281,8.024-28.262,69.161v-.019l-11.49,28.119h3.364c.028,0,.047.028.083.028l3.179-.028h4.311v-.018c19.578-.119,72.07-.44,91.639-.55a43.051,43.051,0,0,0,27.343-10.015l69.855-58.43c2.582-2.183,4.852-3.715,5.928-6.548l119.8-317.436L-2769.955,934ZM-3016.3,1168.234l9.512-23.249,6.738-16.462,6.848-16.719,37.979-92.8,6.939-16.958a5.587,5.587,0,0,1,2.1-2.558l24.789-16.49,35.828-23.836c-.258.633-9.173,22.653-22.124,54.606v.009q-1.033,2.572-2.114,5.227c-35.957,88.769-99.248,245-99.4,245.414l-1.434,3.559c-1.82,4.081-4.99,9.914-9.476,13.179,0,0,.157-.074.211-.092l-60.616,44.123,28.87-70.545,2.6-6.365h.01m64.973,86.256a30.229,30.229,0,0,1-19.182,7.034c-19.863.11-56.859.349-79.23.5l71.564-52.1c5.248-3.018,11.857-2.412,11.857-2.412h71.149Zm184.213-357.258c-.211.541-.414,1.1-.634,1.66-2,5.329-4.311,11.446-6.847,18.2-.267.706-.534,1.413-.8,2.128q-.731,1.9-1.471,3.879c-.533,1.421-1.075,2.88-1.636,4.347-3.245,8.6-6.773,17.985-10.524,27.927q-1.489,3.962-3.024,8.034c-2.05,5.429-4.154,11.005-6.287,16.683q-1.53,4.058-3.088,8.18c-.083.211-.157.422-.24.642q-1.074,2.861-2.168,5.75-1.822,4.829-3.658,9.7c-.607,1.614-1.214,3.219-1.819,4.842-.378.991-.755,1.981-1.122,2.972-.662,1.761-1.324,3.522-2,5.292-.828,2.219-1.673,4.439-2.5,6.658-.754,2-1.517,4-2.261,6-6.048,16.012-12.1,32.1-17.95,47.6-.368.972-.735,1.935-1.094,2.9-3.51,9.291-6.931,18.361-10.212,27.065-.377.991-.753,1.99-1.121,2.972s-.745,1.963-1.112,2.944-.735,1.944-1.094,2.907c-.092.23-.175.459-.258.679-.5,1.329-.992,2.641-1.5,3.952v.009c-.486,1.312-.983,2.6-1.47,3.889-5.018,13.307-9.568,25.376-13.438,35.593-.239.652-.487,1.293-.726,1.926-1.361,3.6-2.628,6.97-3.8,10.052-.331.88-.662,1.733-.974,2.568-1.1,2.926-2.105,5.567-2.988,7.9h-.009l-3.63,9.557a4.217,4.217,0,0,1-3.814,2.384h-77.943a2.19,2.19,0,0,1-.258-.037h-6.636l3.282-8.2,127.805-315.538c.983-1.834,3.1-4.622,6.718-4.805h58.457l-.01-.009h15.414l-3.308,8.85a1.824,1.824,0,0,0-.065.211.073.073,0,0,1-.009.028c-.018.046-.065.174-.147.376-.018.064-.046.138-.073.22-.34.9-1.039,2.751-2.059,5.457C-2795.368,965.32-2797.373,970.639-2799.864,977.27Z" transform="translate(3105.88 -934)" fill="url(#linear-gradient-2)"/>
    </g>
  </g>
  <path id="Path_1349" data-name="Path 1349" d="M-3102.653,1429.125q-.823,0-1.637.042a40.119,40.119,0,0,0-36.139-22.683,40.126,40.126,0,0,0-36.409,23.254,32.466,32.466,0,0,0-6.288-.613,32.238,32.238,0,0,0-32.239,32.238h144.95A32.238,32.238,0,0,0-3102.653,1429.125Z" transform="translate(3589.889 -1312.403)" fill="#655c90"/>
  <path id="Path_1350" data-name="Path 1350" d="M-3618.044,974.791c-.753,0-1.5.021-2.246.058a55.071,55.071,0,0,0-49.607-31.135,55.079,55.079,0,0,0-49.978,31.919,44.552,44.552,0,0,0-8.631-.841,44.252,44.252,0,0,0-44.253,44.253h198.969A44.253,44.253,0,0,0-3618.044,974.791Z" transform="translate(3793.275 -844.632)" fill="#44437e"/>
  <path id="Path_1351" data-name="Path 1351" d="M-3234.709,1390.677q-1.235,0-2.455.063a60.185,60.185,0,0,0-54.213-34.027A60.2,60.2,0,0,0-3346,1391.6a48.722,48.722,0,0,0-9.432-.919,48.362,48.362,0,0,0-48.362,48.362h217.444A48.362,48.362,0,0,0-3234.709,1390.677Z" transform="translate(3469.932 -595.039)" fill="#44437e"/>
  <path id="Path_1352" data-name="Path 1352" d="M-3102.653,1429.125q-.823,0-1.637.042a40.119,40.119,0,0,0-36.139-22.683,40.126,40.126,0,0,0-36.409,23.254,32.466,32.466,0,0,0-6.288-.613,32.238,32.238,0,0,0-32.239,32.238h144.95A32.238,32.238,0,0,0-3102.653,1429.125Z" transform="translate(3385.414 -617.789)" fill="#655c90"/>
</svg>
