<svg xmlns="http://www.w3.org/2000/svg" xmlns:xlink="http://www.w3.org/1999/xlink" width="103.373" height="102" viewBox="0 0 103.373 102">
  <defs>
    <filter id="Path_807" x="0" y="0" width="102" height="102" filterUnits="userSpaceOnUse">
      <feOffset dx="2" dy="2" input="SourceAlpha"/>
      <feGaussianBlur stdDeviation="5" result="blur"/>
      <feFlood flood-color="#fff" flood-opacity="0.749"/>
      <feComposite operator="in" in2="blur"/>
      <feComposite in="SourceGraphic"/>
    </filter>
    <filter id="Line_1" x="12.767" y="25.657" width="90.606" height="65" filterUnits="userSpaceOnUse">
      <feOffset dx="10" dy="10" input="SourceAlpha"/>
      <feGaussianBlur stdDeviation="10" result="blur-2"/>
      <feFlood flood-color="#fff"/>
      <feComposite operator="in" in2="blur-2"/>
      <feComposite in="SourceGraphic"/>
    </filter>
  </defs>
  <g id="Button_-_Arrow" data-name="Button - Arrow" transform="translate(13 13)">
    <g transform="matrix(1, 0, 0, 1, -13, -13)" filter="url(#Path_807)">
      <g id="Path_807-2" data-name="Path 807" transform="translate(13 13)" fill="none" stroke-linecap="round">
        <path d="M36,0A36,36,0,1,1,0,36,36,36,0,0,1,36,0Z" stroke="none"/>
        <path d="M 36.00000381469727 5.000007629394531 C 31.81283187866211 5.000007629394531 27.75354766845703 5.818946838378906 23.93493270874023 7.434089660644531 C 20.24407577514648 8.995189666748047 16.92829132080078 11.2310905456543 14.07968902587891 14.07968902587891 C 11.2310905456543 16.92829132080078 8.995189666748047 20.24407577514648 7.434089660644531 23.93493270874023 C 5.818946838378906 27.75354766845703 5.000007629394531 31.81283187866211 5.000007629394531 36.00000381469727 C 5.000007629394531 40.18717575073242 5.818946838378906 44.24644470214844 7.434089660644531 48.0650634765625 C 8.995189666748047 51.75593185424805 11.2310905456543 55.07170104980469 14.07968902587891 57.92031860351562 C 16.92829132080078 60.76891708374023 20.24407577514648 63.00481796264648 23.93493270874023 64.56591796875 C 27.75354766845703 66.18106079101562 31.81283187866211 67 36.00000381469727 67 C 40.18717575073242 67 44.24644470214844 66.18106079101562 48.0650634765625 64.56591796875 C 51.75593185424805 63.00481796264648 55.07170104980469 60.76891708374023 57.92031860351562 57.92031860351562 C 60.76891708374023 55.07170104980469 63.00481796264648 51.75593185424805 64.56591796875 48.0650634765625 C 66.18106079101562 44.24644470214844 67 40.18717575073242 67 36.00000381469727 C 67 31.81283187866211 66.18106079101562 27.75354766845703 64.56591796875 23.93493270874023 C 63.00481796264648 20.24407577514648 60.76891708374023 16.92829132080078 57.92031860351562 14.07968902587891 C 55.07170104980469 11.2310905456543 51.75593185424805 8.995189666748047 48.0650634765625 7.434089660644531 C 44.24644470214844 5.818946838378906 40.18717575073242 5.000007629394531 36.00000381469727 5.000007629394531 M 36.00000381469727 7.62939453125e-06 C 55.88224792480469 7.62939453125e-06 72 16.11774826049805 72 36.00000381469727 C 72 55.88224792480469 55.88224792480469 72 36.00000381469727 72 C 16.11774826049805 72 7.62939453125e-06 55.88224792480469 7.62939453125e-06 36.00000381469727 C 7.62939453125e-06 16.11774826049805 16.11774826049805 7.62939453125e-06 36.00000381469727 7.62939453125e-06 Z" stroke="none" fill="#fff"/>
      </g>
    </g>
    <g id="Group_2" data-name="Group 2" transform="translate(22.267 24.1)">
      <g transform="matrix(1, 0, 0, 1, -35.27, -37.1)" filter="url(#Line_1)">
        <line id="Line_1-2" data-name="Line 1" x2="25.606" transform="translate(35.27 48.16)" fill="none" stroke="#fff" stroke-linecap="round" stroke-width="5"/>
      </g>
      <line id="Line_2" data-name="Line 2" x2="11.057" y2="11.057" transform="translate(14.549)" fill="none" stroke="#fff" stroke-linecap="round" stroke-width="5"/>
      <line id="Line_3" data-name="Line 3" y1="11.057" x2="11.057" transform="translate(14.549 11.057)" fill="none" stroke="#fff" stroke-linecap="round" stroke-width="5"/>
    </g>
  </g>
</svg>
