<svg xmlns="http://www.w3.org/2000/svg" xmlns:xlink="http://www.w3.org/1999/xlink" width="1248.563" height="349.637" viewBox="0 0 1248.563 349.637">
  <defs>
    <filter id="bg" x="78.563" y="119.637" width="1210" height="270" filterUnits="userSpaceOnUse">
      <feOffset dx="10" dy="10" input="SourceAlpha"/>
      <feGaussianBlur stdDeviation="10" result="blur"/>
      <feFlood flood-opacity="0.149"/>
      <feComposite operator="in" in2="blur"/>
      <feComposite in="SourceGraphic"/>
    </filter>
    <clipPath id="clip-path">
      <ellipse id="Ellipse_5" data-name="Ellipse 5" cx="87.981" cy="88.179" rx="87.981" ry="88.179" fill="none"/>
    </clipPath>
    <clipPath id="clip-path-2">
      <g transform="matrix(1, 0, 0, 1, 0, 0)" filter="url(#bg)">
        <path id="bg-2" data-name="bg" d="M80,0H1150a0,0,0,0,1,0,0V210a0,0,0,0,1,0,0H80A80,80,0,0,1,0,130V80A80,80,0,0,1,80,0Z" fill="#f15d5e"/>
      </g>
    </clipPath>
    <filter id="bg-3" x="78.563" y="119.637" width="1210" height="270" filterUnits="userSpaceOnUse">
      <feOffset dx="10" dy="10" input="SourceAlpha"/>
      <feGaussianBlur stdDeviation="10" result="blur-2"/>
      <feFlood flood-opacity="0.149"/>
      <feComposite operator="in" in2="blur-2"/>
      <feComposite in="SourceGraphic"/>
    </filter>
    <clipPath id="clip-path-3">
      <path id="bg-4" data-name="bg" d="M0,0H1151a0,0,0,0,1,0,0V321a0,0,0,0,1,0,0H80A80,80,0,0,1,0,241V0A0,0,0,0,1,0,0Z" fill="#d47fa6"/>
    </clipPath>
  </defs>
  <g id="heading-red-tablet" transform="translate(21936.563 -2959.363)">
    <g id="Group_2742" data-name="Group 2742" transform="translate(-20273.965 601.704)">
      <g id="Group_75" data-name="Group 75" transform="translate(-1662.598 2357.659)" clip-path="url(#clip-path)">
        <line id="Line_50" data-name="Line 50" y1="155.341" x2="155.341" transform="translate(21.453 18.367)" fill="none" stroke="#f15d5e" stroke-miterlimit="10" stroke-width="1"/>
        <line id="Line_51" data-name="Line 51" y1="155.341" x2="155.341" transform="translate(31.466 28.379)" fill="none" stroke="#f15d5e" stroke-miterlimit="10" stroke-width="1"/>
        <line id="Line_52" data-name="Line 52" y1="155.341" x2="155.341" transform="translate(41.478 38.391)" fill="none" stroke="#f15d5e" stroke-miterlimit="10" stroke-width="1"/>
        <line id="Line_53" data-name="Line 53" y1="152.165" x2="152.166" transform="translate(54.665 48.403)" fill="none" stroke="#f15d5e" stroke-miterlimit="10" stroke-width="1"/>
        <line id="Line_54" data-name="Line 54" y1="138.314" x2="138.314" transform="translate(67.402 69.543)" fill="none" stroke="#f15d5e" stroke-miterlimit="10" stroke-width="1"/>
        <line id="Line_55" data-name="Line 55" y1="138.314" x2="138.314" transform="translate(77.414 79.555)" fill="none" stroke="#f15d5e" stroke-miterlimit="10" stroke-width="1"/>
        <line id="Line_56" data-name="Line 56" y1="143.334" x2="143.334" transform="translate(-33.603 -52.237)" fill="none" stroke="#f15d5e" stroke-miterlimit="10" stroke-width="1"/>
        <line id="Line_57" data-name="Line 57" y1="143.334" x2="143.334" transform="translate(-23.591 -42.225)" fill="none" stroke="#f15d5e" stroke-miterlimit="10" stroke-width="1"/>
        <line id="Line_58" data-name="Line 58" y1="155.557" x2="155.557" transform="translate(-19.019 -38.996)" fill="none" stroke="#f15d5e" stroke-miterlimit="10" stroke-width="1"/>
        <line id="Line_59" data-name="Line 59" y1="155.557" x2="155.557" transform="translate(-9.007 -28.984)" fill="none" stroke="#f15d5e" stroke-miterlimit="10" stroke-width="1"/>
        <line id="Line_60" data-name="Line 60" y1="141.065" x2="141.065" transform="translate(0.821 -5.547)" fill="none" stroke="#f15d5e" stroke-miterlimit="10" stroke-width="1"/>
        <line id="Line_61" data-name="Line 61" y1="141.065" x2="141.065" transform="translate(10.833 4.466)" fill="none" stroke="#f15d5e" stroke-miterlimit="10" stroke-width="1"/>
        <line id="Line_62" data-name="Line 62" y1="141.065" x2="141.065" transform="translate(20.845 14.478)" fill="none" stroke="#f15d5e" stroke-miterlimit="10" stroke-width="1"/>
      </g>
    </g>
    <g id="Mask_Group_118" data-name="Mask Group 118" transform="translate(-21838 3099)" clip-path="url(#clip-path-2)">
      <g transform="matrix(1, 0, 0, 1, -98.56, -139.64)" filter="url(#bg-3)">
        <path id="bg-5" data-name="bg" d="M1150,0H115.288C51.616,0,0,35.817,0,80v50c0,44.183,51.616,80,115.288,80H1150Z" transform="translate(98.56 139.64)" fill="#f15d5e"/>
      </g>
      <g id="Mask_Group_117" data-name="Mask Group 117" transform="translate(0 -111)" clip-path="url(#clip-path-3)">
        <path id="path" d="M1510.2,349.831c-44.6-1-46.5-24.146-91.007-24.432s-54.694,29.616-88.8,29.757-67.612-42.685-119.411-44.4-75.6,22.108-133.207,21.867-95.707-35.085-161.31-36.986-81.114,26.432-137.712,25.623-90.816-77.908-189.227-81.713S475.88,289.793,375.67,290.221s-53.954,24.052-149.956,24.957S-15.9,391.425-15.9,391.425H1578.5Z" transform="translate(549.804 -70.006)" fill="#ffc1dd" opacity="0.177"/>
        <path id="path-2" data-name="path" d="M70.934,349.527c56.7-.993,59.118-24.079,115.693-24.365s69.53,29.534,112.89,29.675,85.951-42.567,151.8-44.276,96.112,22.047,169.34,21.807,121.668-34.989,205.064-36.884,103.117,26.359,175.067,25.553,115.449-77.693,240.555-81.488,144.468,50.106,271.859,50.533,68.589,23.986,190.631,24.888,307.148,76.037,307.148,76.037H-15.9Z" transform="translate(-679.101 -70.006)" fill="#fff" opacity="0.159"/>
      </g>
    </g>
  </g>
</svg>
