<svg xmlns="http://www.w3.org/2000/svg" xmlns:xlink="http://www.w3.org/1999/xlink" width="1150" height="306.023" viewBox="0 0 1150 306.023">
  <defs>
    <filter id="bg" x="-20" y="76.023" width="1210" height="270" filterUnits="userSpaceOnUse">
      <feOffset dx="10" dy="10" input="SourceAlpha"/>
      <feGaussianBlur stdDeviation="10" result="blur"/>
      <feFlood flood-opacity="0.149"/>
      <feComposite operator="in" in2="blur"/>
      <feComposite in="SourceGraphic"/>
    </filter>
    <clipPath id="clip-path">
      <g transform="matrix(1, 0, 0, 1, 0, 0)" filter="url(#bg)">
        <path id="bg-2" data-name="bg" d="M0,0H1070a80,80,0,0,1,80,80v50a80,80,0,0,1-80,80H0a0,0,0,0,1,0,0V0A0,0,0,0,1,0,0Z" transform="translate(-351.81)" fill="#212066"/>
      </g>
    </clipPath>
    <filter id="bg-3" x="-20" y="76.023" width="1210" height="270" filterUnits="userSpaceOnUse">
      <feOffset dx="10" dy="10" input="SourceAlpha"/>
      <feGaussianBlur stdDeviation="10" result="blur-2"/>
      <feFlood flood-opacity="0.149"/>
      <feComposite operator="in" in2="blur-2"/>
      <feComposite in="SourceGraphic"/>
    </filter>
    <clipPath id="clip-path-2">
      <path id="bg-4" data-name="bg" d="M0,0H1152a0,0,0,0,1,0,0V241a80,80,0,0,1-80,80H0a0,0,0,0,1,0,0V0A0,0,0,0,1,0,0Z" transform="translate(-354)" fill="#d47fa6"/>
    </clipPath>
    <clipPath id="clip-path-3">
      <ellipse id="Ellipse_5" data-name="Ellipse 5" cx="87.981" cy="88.179" rx="87.981" ry="88.179" fill="none"/>
    </clipPath>
  </defs>
  <g id="heading-blue-tablet" transform="translate(21838 -3369.977)">
    <g id="Mask_Group_120" data-name="Mask Group 120" transform="translate(-21486.191 3466)" clip-path="url(#clip-path)">
      <g transform="matrix(1, 0, 0, 1, -351.81, -96.02)" filter="url(#bg-3)">
        <path id="bg-5" data-name="bg" d="M0,0H1070a80,80,0,0,1,80,80v50a80,80,0,0,1-80,80H0a0,0,0,0,1,0,0V0A0,0,0,0,1,0,0Z" transform="translate(0 96.02)" fill="#212066"/>
      </g>
      <g id="Mask_Group_119" data-name="Mask Group 119" transform="translate(0.192 -111)" clip-path="url(#clip-path-2)">
        <path id="path" d="M52.407,349.831c44.6-1,46.5-24.146,91.007-24.432s54.694,29.616,88.8,29.757,67.612-42.685,119.41-44.4,75.6,22.108,133.207,21.867,95.707-35.085,161.31-36.986,81.114,26.432,137.712,25.623,90.816-77.908,189.227-81.713,113.642,50.245,213.852,50.672,53.954,24.052,149.956,24.957,241.61,76.247,241.61,76.247H-15.9Z" transform="translate(-1314.41 -70.006)" fill="#ffc1dd" opacity="0.177"/>
        <path id="path-2" data-name="path" d="M1924.152,349.527c-56.7-.993-59.118-24.079-115.693-24.365s-69.53,29.534-112.89,29.675-85.951-42.567-151.8-44.276-96.112,22.047-169.34,21.807-121.668-34.989-205.064-36.884S1066.247,321.843,994.3,321.036s-115.449-77.693-240.555-81.488-144.468,50.106-271.859,50.533-68.589,23.986-190.631,24.888S-15.9,391.006-15.9,391.006H2010.981Z" transform="translate(-517.985 -70.006)" fill="#fff" opacity="0.159"/>
      </g>
    </g>
    <g id="Group_2744" data-name="Group 2744" transform="translate(-21560.98 3369.977)" clip-path="url(#clip-path-3)">
      <line id="Line_350" data-name="Line 350" y1="155.341" x2="155.341" transform="translate(21.453 18.367)" fill="none" stroke="#f15d5e" stroke-miterlimit="10" stroke-width="1"/>
      <line id="Line_351" data-name="Line 351" y1="155.341" x2="155.341" transform="translate(31.466 28.379)" fill="none" stroke="#f15d5e" stroke-miterlimit="10" stroke-width="1"/>
      <line id="Line_352" data-name="Line 352" y1="155.341" x2="155.341" transform="translate(41.478 38.391)" fill="none" stroke="#f15d5e" stroke-miterlimit="10" stroke-width="1"/>
      <line id="Line_353" data-name="Line 353" y1="152.165" x2="152.166" transform="translate(54.665 48.403)" fill="none" stroke="#f15d5e" stroke-miterlimit="10" stroke-width="1"/>
      <line id="Line_354" data-name="Line 354" y1="138.314" x2="138.314" transform="translate(67.402 69.543)" fill="none" stroke="#f15d5e" stroke-miterlimit="10" stroke-width="1"/>
      <line id="Line_355" data-name="Line 355" y1="138.314" x2="138.314" transform="translate(77.414 79.555)" fill="none" stroke="#f15d5e" stroke-miterlimit="10" stroke-width="1"/>
      <line id="Line_356" data-name="Line 356" y1="143.334" x2="143.334" transform="translate(-33.603 -52.237)" fill="none" stroke="#f15d5e" stroke-miterlimit="10" stroke-width="1"/>
      <line id="Line_357" data-name="Line 357" y1="143.334" x2="143.334" transform="translate(-23.591 -42.225)" fill="none" stroke="#f15d5e" stroke-miterlimit="10" stroke-width="1"/>
      <line id="Line_358" data-name="Line 358" y1="155.557" x2="155.557" transform="translate(-19.019 -38.996)" fill="none" stroke="#f15d5e" stroke-miterlimit="10" stroke-width="1"/>
      <line id="Line_359" data-name="Line 359" y1="155.557" x2="155.557" transform="translate(-9.007 -28.984)" fill="none" stroke="#f15d5e" stroke-miterlimit="10" stroke-width="1"/>
      <line id="Line_360" data-name="Line 360" y1="141.065" x2="141.065" transform="translate(0.821 -5.547)" fill="none" stroke="#f15d5e" stroke-miterlimit="10" stroke-width="1"/>
      <line id="Line_361" data-name="Line 361" y1="141.065" x2="141.065" transform="translate(10.833 4.466)" fill="none" stroke="#f15d5e" stroke-miterlimit="10" stroke-width="1"/>
      <line id="Line_362" data-name="Line 362" y1="141.065" x2="141.065" transform="translate(20.845 14.478)" fill="none" stroke="#f15d5e" stroke-miterlimit="10" stroke-width="1"/>
    </g>
  </g>
</svg>
