<svg id="hero-type3-tablet" xmlns="http://www.w3.org/2000/svg" xmlns:xlink="http://www.w3.org/1999/xlink" width="1134" height="1188.458" viewBox="0 0 1134 1188.458">
  <defs>
    <linearGradient id="linear-gradient" x1="0.422" x2="0.5" y2="0.982" gradientUnits="objectBoundingBox">
      <stop offset="0" stop-color="#fff"/>
      <stop offset="0.517" stop-color="#fff"/>
      <stop offset="1" stop-color="#efeefb"/>
    </linearGradient>
    <clipPath id="clip-path">
      <rect id="Rectangle_862" data-name="Rectangle 862" width="1134" height="1112" transform="translate(-150)" fill="url(#linear-gradient)"/>
    </clipPath>
    <linearGradient id="linear-gradient-3" x1="0.5" x2="0.5" y2="1" gradientUnits="objectBoundingBox">
      <stop offset="0" stop-color="#090743"/>
      <stop offset="1" stop-color="#434398"/>
    </linearGradient>
    <linearGradient id="linear-gradient-5" x1="0.247" y1="0.925" x2="0.695" gradientUnits="objectBoundingBox">
      <stop offset="0" stop-color="#1a1a40"/>
      <stop offset="1" stop-color="#fb5357"/>
    </linearGradient>
    <clipPath id="clip-path-2">
      <ellipse id="Ellipse_5" data-name="Ellipse 5" cx="92.25" cy="92.458" rx="92.25" ry="92.458" transform="translate(0)" fill="none"/>
    </clipPath>
  </defs>
  <g id="Mask_Group_139" data-name="Mask Group 139" transform="translate(150)" clip-path="url(#clip-path)">
    <rect id="Rectangle_858" data-name="Rectangle 858" width="1134" height="1112" transform="translate(-150)" fill="url(#linear-gradient)"/>
    <path id="Path_1373" data-name="Path 1373" d="M0,1.716l777.19-42.1L703.069,1275.193l-777.19,42.1Z" transform="translate(-117.798 -243.962) rotate(21)" fill="#8a56ac" opacity="0.15"/>
    <path id="Path_1374" data-name="Path 1374" d="M0,1.525,777.19-40.381,702.973,1270.914l-777.19,41.906Z" transform="translate(-169.198 -260.388) rotate(21)" fill="#8a56ac" opacity="0.3"/>
    <path id="Path_1375" data-name="Path 1375" d="M0,1.854,777.19-40.381,703.37,1274.138l-777.19,42.235Z" transform="translate(-221.103 -275.703) rotate(21)" fill="url(#linear-gradient-3)"/>
  </g>
  <circle id="Ellipse" cx="60" cy="60" r="60" transform="translate(891 961)" opacity="0.995" fill="url(#linear-gradient-3)"/>
  <ellipse id="Ellipse_426" data-name="Ellipse 426" cx="27.5" cy="28" rx="27.5" ry="28" transform="translate(833 1081)" fill="url(#linear-gradient-5)"/>
  <circle id="Ellipse_427" data-name="Ellipse 427" cx="20.5" cy="20.5" r="20.5" transform="translate(200 296)" fill="#f15d5e"/>
  <g id="Group_2768" data-name="Group 2768" transform="translate(1736.598 -1682.116)">
    <g id="Group_75" data-name="Group 75" transform="translate(-1621.598 2685.659)" clip-path="url(#clip-path-2)">
      <line id="Line_50" data-name="Line 50" y1="162.879" x2="162.879" transform="translate(22.494 19.258)" fill="none" stroke="#f15d5e" stroke-miterlimit="10" stroke-width="1"/>
      <line id="Line_51" data-name="Line 51" y1="162.879" x2="162.879" transform="translate(32.993 29.756)" fill="none" stroke="#f15d5e" stroke-miterlimit="10" stroke-width="1"/>
      <line id="Line_52" data-name="Line 52" y1="162.879" x2="162.879" transform="translate(43.491 40.254)" fill="none" stroke="#f15d5e" stroke-miterlimit="10" stroke-width="1"/>
      <line id="Line_53" data-name="Line 53" y1="159.55" x2="159.55" transform="translate(57.318 50.752)" fill="none" stroke="#f15d5e" stroke-miterlimit="10" stroke-width="1"/>
      <line id="Line_54" data-name="Line 54" y1="145.026" x2="145.026" transform="translate(70.672 72.918)" fill="none" stroke="#f15d5e" stroke-miterlimit="10" stroke-width="1"/>
      <line id="Line_55" data-name="Line 55" y1="145.026" x2="145.026" transform="translate(81.17 83.416)" fill="none" stroke="#f15d5e" stroke-miterlimit="10" stroke-width="1"/>
      <line id="Line_56" data-name="Line 56" y1="150.289" x2="150.289" transform="translate(-35.234 -54.772)" fill="none" stroke="#f15d5e" stroke-miterlimit="10" stroke-width="1"/>
      <line id="Line_57" data-name="Line 57" y1="150.289" x2="150.289" transform="translate(-24.736 -44.274)" fill="none" stroke="#f15d5e" stroke-miterlimit="10" stroke-width="1"/>
      <line id="Line_58" data-name="Line 58" y1="163.106" x2="163.106" transform="translate(-19.942 -40.888)" fill="none" stroke="#f15d5e" stroke-miterlimit="10" stroke-width="1"/>
      <line id="Line_59" data-name="Line 59" y1="163.106" x2="163.106" transform="translate(-9.444 -30.39)" fill="none" stroke="#f15d5e" stroke-miterlimit="10" stroke-width="1"/>
      <line id="Line_60" data-name="Line 60" y1="147.911" x2="147.911" transform="translate(0.861 -5.816)" fill="none" stroke="#f15d5e" stroke-miterlimit="10" stroke-width="1"/>
      <line id="Line_61" data-name="Line 61" y1="147.911" x2="147.911" transform="translate(11.359 4.682)" fill="none" stroke="#f15d5e" stroke-miterlimit="10" stroke-width="1"/>
      <line id="Line_62" data-name="Line 62" y1="147.911" x2="147.911" transform="translate(21.857 15.18)" fill="none" stroke="#f15d5e" stroke-miterlimit="10" stroke-width="1"/>
    </g>
  </g>
  <circle id="Ellipse_428" data-name="Ellipse 428" cx="16" cy="16" r="16" transform="translate(218 577)" fill="url(#linear-gradient-3)"/>
  <circle id="Ellipse_429" data-name="Ellipse 429" cx="60.5" cy="60.5" r="60.5" transform="translate(79 337)" fill="url(#linear-gradient-3)"/>
  <circle id="Ellipse_430" data-name="Ellipse 430" cx="64.5" cy="64.5" r="64.5" transform="translate(274 582)" fill="url(#linear-gradient-5)"/>
  <circle id="Ellipse-2" data-name="Ellipse" cx="54" cy="54" r="54" transform="translate(339 129)" opacity="0.995" fill="url(#linear-gradient-3)"/>
  <circle id="Ellipse_431" data-name="Ellipse 431" cx="26.5" cy="26.5" r="26.5" transform="translate(231 931)" fill="#f15d5e"/>
</svg>
