<svg xmlns="http://www.w3.org/2000/svg" xmlns:xlink="http://www.w3.org/1999/xlink" width="389.876" height="344.58" viewBox="0 0 389.876 344.58">
  <defs>
    <clipPath id="clip-path">
      <rect id="Rectangle_840" data-name="Rectangle 840" width="389.876" height="344.58" transform="translate(0)" fill="#fff" stroke="#707070" stroke-width="1"/>
    </clipPath>
    <linearGradient id="linear-gradient" y1="0.5" x2="1" y2="0.5" gradientUnits="objectBoundingBox">
      <stop offset="0" stop-color="#090743"/>
      <stop offset="1" stop-color="#434398"/>
    </linearGradient>
  </defs>
  <g id="Mask_Group_126" data-name="Mask Group 126" opacity="0.024" clip-path="url(#clip-path)">
    <g id="Group_2796" data-name="Group 2796" transform="translate(0 13.814)">
      <path id="Path_1384" data-name="Path 1384" d="M-2467.356,1304.818l-21.269-50.361-.643-1.521-17.4-41.195-15.38-36.42-18.122-42.9-1.047-2.481-2.779-6.578a3.044,3.044,0,0,0-2.966-1.868l-55.983,2.669-24.04,65.188a4.639,4.639,0,0,0,.014,3.2l43.505,114.395,14.889,39.139A21.056,21.056,0,0,0-2549,1359.571h50.737l4.41-6.945,5.925-9.34,20.894-32.922A8.459,8.459,0,0,0-2467.356,1304.818Zm-91.716,38.288c-.021-.05-.043-.108-.065-.173-.057-.13-.115-.3-.195-.49-.058-.152-.123-.325-.2-.526-.109-.3-.246-.642-.4-1.039-.079-.224-.173-.455-.266-.7-.231-.621-.5-1.32-.8-2.106-.072-.2-.152-.4-.231-.6-.231-.613-.484-1.284-.757-1.991-.138-.375-.289-.765-.441-1.161-1.155-3.029-2.57-6.736-4.179-10.97-.289-.75-.577-1.521-.88-2.307-.152-.389-.3-.786-.455-1.2-1.436-3.758-3-7.861-4.655-12.21q-.693-1.818-1.407-3.692-.553-1.439-1.1-2.9c-.115-.3-.231-.592-.339-.894s-.246-.642-.368-.959c-.325-.859-.657-1.724-.989-2.589-.375-1-.765-2.012-1.155-3.029-2.129-5.582-4.338-11.388-6.582-17.266-.4-1.067-.815-2.142-1.219-3.216s-.823-2.142-1.227-3.217-.823-2.156-1.234-3.231c-1.429-3.765-2.865-7.529-4.287-11.258-.816-2.127-1.624-4.248-2.418-6.339-.021-.065-.051-.137-.079-.2-.368-.98-.743-1.954-1.112-2.928-3.182-8.351-6.228-16.335-8.956-23.511-.325-.844-.643-1.673-.953-2.5-.989-2.6-1.934-5.084-2.829-7.421-.3-.779-.584-1.536-.866-2.279s-.563-1.471-.83-2.185-.541-1.406-.793-2.077c-.036-.1-.079-.2-.115-.3-.217-.57-.427-1.125-.636-1.666-.173-.454-.339-.9-.5-1.334s-.324-.858-.484-1.27a.781.781,0,0,1-.05-.123c-.217-.577-.426-1.132-.635-1.666-.715-1.867-1.321-3.469-1.819-4.774a11.17,11.17,0,0,1-.029-7.89l15.12-41.007,58.986,159.642a24.194,24.194,0,0,1,1.01,6.419,9.184,9.184,0,0,1-.937,4.435l-1.242,1.9L-2559,1343.3C-2559,1343.293-2559.029,1343.229-2559.072,1343.106Zm61.08-2.185-5.659,8.842h-47.417c-.1-.209-.079-.158-.187-.353l16.6-25.429,2.41-3.692c1-1.284,2.909-3.281,5.276-3.281h44.284Zm-28.934-33.78c-2.815-.166-4.417-2.763-5.052-4.125l-62.2-168.326a.861.861,0,0,1,.772-1.154l40.575-1.925a2.321,2.321,0,0,1,2.251,1.413l1.718,4.075,11.425,27.044,27.771,65.75,12,28.423,20.641,48.875Z" transform="translate(2858.555 -1030.954)" fill="url(#linear-gradient)"/>
      <path id="Path_1385" data-name="Path 1385" d="M-2917.267,934a11.6,11.6,0,0,0-5.651,1.529L-2968.7,965.9l-19.3,12.8a6.091,6.091,0,0,0-2.294,2.8l-7.9,19.342-26.422,64.763-4.828,11.834-4.4,10.789-5.637,13.8-23.376,57.3-1.775,4.349-7.455,18.275-2.577,6.31-22.192,54.385v-.014l-9.022,22.111h2.641c.022,0,.037.022.066.022l2.5-.022h3.385v-.014c15.372-.094,56.589-.346,71.955-.433a33.775,33.775,0,0,0,21.471-7.875l54.85-45.947c2.028-1.717,3.81-2.921,4.655-5.149l94.068-249.618,8.185-21.708Zm-118.274,184.191,7.47-18.282,5.29-12.945,5.376-13.147,29.822-72.978,5.449-13.335a4.392,4.392,0,0,1,1.645-2.012l19.465-12.967,28.132-18.744c-.2.5-7.2,17.814-17.372,42.94v.007q-.812,2.022-1.66,4.11c-28.234,69.8-77.931,192.659-78.053,192.983l-1.126,2.8c-1.429,3.209-3.919,7.8-7.44,10.364,0,0,.123-.058.166-.073l-47.6,34.7,22.669-55.474,2.042-5.005h.007m51.018,67.828a23.716,23.716,0,0,1-15.062,5.531c-15.6.087-44.646.274-62.212.39l56.193-40.971a17.848,17.848,0,0,1,9.31-1.9h55.868Zm144.646-280.932c-.166.425-.324.865-.5,1.305-1.573,4.19-3.385,9-5.376,14.308-.21.555-.419,1.111-.628,1.673-.382,1-.765,2.012-1.155,3.05-.418,1.118-.845,2.265-1.285,3.418-2.548,6.765-5.319,14.143-8.263,21.96q-1.169,3.116-2.374,6.318c-1.61,4.269-3.263,8.654-4.937,13.119q-1.2,3.191-2.425,6.433c-.065.166-.123.332-.188.505q-.844,2.25-1.7,4.522-1.43,3.8-2.873,7.63c-.477,1.269-.953,2.531-1.429,3.808-.3.779-.592,1.558-.881,2.337-.52,1.385-1.04,2.769-1.573,4.161-.649,1.745-1.313,3.49-1.963,5.236-.592,1.572-1.191,3.145-1.775,4.717-4.749,12.592-9.5,25.242-14.095,37.43-.289.764-.577,1.521-.859,2.279-2.757,7.306-5.442,14.438-8.019,21.282-.3.779-.591,1.565-.88,2.337s-.584,1.543-.874,2.315-.577,1.529-.858,2.286c-.072.181-.137.361-.2.534-.39,1.046-.78,2.077-1.177,3.108v.007c-.382,1.031-.772,2.048-1.155,3.058-3.94,10.464-7.513,19.955-10.552,27.989-.188.512-.383,1.017-.57,1.515-1.069,2.834-2.064,5.481-2.981,7.9-.26.692-.519,1.363-.765,2.02-.866,2.3-1.653,4.378-2.346,6.209h-.007l-2.851,7.515a3.308,3.308,0,0,1-2.995,1.875h-61.2a1.68,1.68,0,0,1-.2-.029h-5.21l2.576-6.447,100.355-248.125a6.57,6.57,0,0,1,5.275-3.779h45.9l-.007-.007h12.1l-2.6,6.96a1.426,1.426,0,0,0-.051.166.056.056,0,0,1-.007.022c-.014.036-.051.137-.115.3-.014.051-.036.108-.058.173-.267.706-.815,2.163-1.617,4.291C-2862.063,958.628-2863.636,962.811-2865.592,968.026Z" transform="translate(3105.88 -934)" fill="url(#linear-gradient)"/>
    </g>
  </g>
</svg>
