<svg xmlns="http://www.w3.org/2000/svg" xmlns:xlink="http://www.w3.org/1999/xlink" width="1151" height="189" viewBox="0 0 1151 189">
  <defs>
    <clipPath id="clip-path">
      <rect id="bg" width="1151" height="189" transform="translate(0 132)" fill="#d47fa6"/>
    </clipPath>
  </defs>
  <g id="heading-bg-red" transform="translate(0 -132)" clip-path="url(#clip-path)">
    <path id="path" d="M1510.2,349.831c-44.6-1-46.5-24.146-91.007-24.432s-54.694,29.616-88.8,29.757-67.612-42.685-119.411-44.4-75.6,22.108-133.207,21.867-95.707-35.085-161.31-36.986-81.114,26.432-137.712,25.623-90.816-77.908-189.227-81.713S475.88,289.793,375.67,290.221s-53.954,24.052-149.956,24.957S-15.9,391.425-15.9,391.425H1578.5Z" transform="translate(549.804 -70.006)" fill="#ffc1dd" opacity="0.177"/>
    <path id="path-2" data-name="path" d="M70.934,349.527c56.7-.993,59.118-24.079,115.693-24.365s69.53,29.534,112.89,29.675,85.951-42.567,151.8-44.276,96.112,22.047,169.34,21.807,121.668-34.989,205.064-36.884,103.117,26.359,175.067,25.553,115.449-77.693,240.555-81.488,144.468,50.106,271.859,50.533,68.589,23.986,190.631,24.888,307.148,76.037,307.148,76.037H-15.9Z" transform="translate(-679.101 -70.006)" fill="#fff" opacity="0.159"/>
  </g>
</svg>
