<svg id="home-top-tablet" xmlns="http://www.w3.org/2000/svg" xmlns:xlink="http://www.w3.org/1999/xlink" width="1134" height="1112" viewBox="0 0 1134 1112">
  <defs>
    <linearGradient id="linear-gradient" x1="0.745" y1="0.203" x2="0.865" y2="1.01" gradientUnits="objectBoundingBox">
      <stop offset="0" stop-color="#090743"/>
      <stop offset="1" stop-color="#434398"/>
    </linearGradient>
    <clipPath id="clip-path">
      <rect id="Rectangle_599" data-name="Rectangle 599" width="440.816" height="409.708" transform="translate(0 0)" fill="#fff" stroke="#707070" stroke-width="1"/>
    </clipPath>
    <linearGradient id="linear-gradient-2" x1="0" y1="0.5" x2="1" y2="0.5" xlink:href="#linear-gradient"/>
    <clipPath id="clip-path-2">
      <rect id="Rectangle_552" data-name="Rectangle 552" width="687" height="540" transform="translate(0 0)" fill="#fff" stroke="#707070" stroke-width="1"/>
    </clipPath>
  </defs>
  <path id="Path_1354" data-name="Path 1354" d="M-3568.843,984.674q-1.489,0-2.961.076a72.583,72.583,0,0,0-65.382-41.037,72.6,72.6,0,0,0-65.872,42.07,58.724,58.724,0,0,0-11.376-1.109A58.325,58.325,0,0,0-3772.76,1043h262.243A58.325,58.325,0,0,0-3568.843,984.674Z" transform="translate(3873.139 -819.713)" fill="#44437e"/>
  <rect id="Rectangle_598" data-name="Rectangle 598" width="390" height="844" transform="translate(150)" fill="url(#linear-gradient)"/>
  <path id="Path_910" data-name="Path 910" d="M-3618.76,974.647q-1.125,0-2.236.057a54.816,54.816,0,0,0-49.378-30.992,54.825,54.825,0,0,0-49.747,31.772,44.337,44.337,0,0,0-8.592-.838,44.048,44.048,0,0,0-44.048,44.049h198.049A44.048,44.048,0,0,0-3618.76,974.647Z" transform="translate(4189.877 -352.554)" fill="#655c90"/>
  <g id="Mask_Group_32" data-name="Mask Group 32" transform="translate(99 433.118)" clip-path="url(#clip-path)">
    <g id="Group_2049" data-name="Group 2049" transform="translate(-7.117 19.051)">
      <path id="Path_911" data-name="Path 911" d="M-2423.616,1354.625l-27.087-64.043-.818-1.935-22.161-52.387-19.586-46.315-23.08-54.551-1.333-3.155-3.539-8.365A3.877,3.877,0,0,0-2525,1121.5l-71.3,3.394-30.616,82.9a5.886,5.886,0,0,0,.018,4.063l55.406,145.474,18.962,49.772a26.815,26.815,0,0,0,24.927,17.151h64.615l5.617-8.832,7.546-11.877,26.609-41.867A10.741,10.741,0,0,0-2423.616,1354.625Zm-116.8,48.69c-.027-.064-.054-.138-.082-.22-.073-.165-.146-.376-.248-.624-.073-.193-.156-.413-.257-.669-.137-.376-.312-.817-.506-1.321-.1-.285-.22-.578-.34-.889-.295-.789-.635-1.678-1.021-2.678-.092-.248-.193-.5-.294-.761-.295-.779-.616-1.632-.966-2.531-.174-.476-.368-.972-.561-1.476-1.471-3.852-3.272-8.566-5.322-13.95-.368-.954-.736-1.935-1.122-2.935-.193-.5-.386-1-.579-1.522-1.829-4.778-3.824-10-5.929-15.527q-.882-2.311-1.792-4.7-.7-1.83-1.406-3.687c-.148-.376-.294-.752-.432-1.137-.156-.4-.313-.816-.469-1.22-.413-1.092-.836-2.192-1.259-3.293-.477-1.266-.974-2.559-1.47-3.851-2.712-7.1-5.524-14.482-8.383-21.957-.514-1.357-1.038-2.724-1.552-4.09s-1.048-2.724-1.563-4.091c-.533-1.376-1.048-2.742-1.572-4.108-1.82-4.787-3.649-9.575-5.46-14.317-1.039-2.7-2.068-5.4-3.079-8.061-.028-.083-.065-.174-.1-.257-.468-1.246-.947-2.485-1.415-3.723-4.053-10.62-7.933-20.773-11.406-29.9-.414-1.073-.819-2.127-1.214-3.173-1.259-3.311-2.462-6.466-3.6-9.437-.376-.99-.744-1.953-1.1-2.9s-.717-1.871-1.057-2.779-.689-1.788-1.01-2.641c-.046-.128-.1-.257-.147-.385-.276-.725-.542-1.431-.809-2.119-.22-.578-.432-1.146-.643-1.7s-.414-1.092-.616-1.614a1.139,1.139,0,0,1-.064-.156c-.275-.734-.542-1.439-.808-2.119-.91-2.375-1.683-4.411-2.316-6.071a14.186,14.186,0,0,1-.037-10.033l19.256-52.148,75.121,203.015a30.717,30.717,0,0,1,1.287,8.162,11.662,11.662,0,0,1-1.195,5.641l-1.581,2.412-20.782,31.778C-2540.328,1403.553-2540.364,1403.471-2540.42,1403.315Zm77.787-2.779-7.206,11.244h-60.387c-.129-.265-.1-.2-.239-.449l21.14-32.338,3.069-4.7c1.278-1.632,3.7-4.173,6.719-4.173h56.4Zm-36.848-42.958c-3.585-.211-5.626-3.513-6.434-5.246l-79.211-214.058a1.1,1.1,0,0,1,.984-1.467l51.674-2.448a2.957,2.957,0,0,1,2.867,1.8l2.188,5.182,14.55,34.392,35.368,83.614,15.286,36.144,26.287,62.153Z" transform="translate(2921.824 -1006.355)" fill="url(#linear-gradient-2)"/>
      <path id="Path_912" data-name="Path 912" d="M-2865.673,934a14.794,14.794,0,0,0-7.2,1.944l-58.31,38.62-24.577,16.279a7.747,7.747,0,0,0-2.923,3.559l-10.056,24.6-33.65,82.359-6.148,15.05-5.607,13.72-7.179,17.554-29.771,72.866-2.261,5.53-9.495,23.24-3.281,8.024-28.262,69.161v-.019l-11.49,28.119h3.364c.028,0,.047.028.083.028l3.179-.028h4.311v-.018c19.578-.119,72.07-.44,91.639-.55a43.051,43.051,0,0,0,27.343-10.015l69.855-58.43c2.582-2.183,4.852-3.715,5.928-6.548l119.8-317.436L-2769.955,934ZM-3016.3,1168.234l9.512-23.249,6.738-16.462,6.848-16.719,37.979-92.8,6.939-16.958a5.587,5.587,0,0,1,2.1-2.558l24.789-16.49,35.828-23.836c-.258.633-9.173,22.653-22.124,54.606v.009q-1.033,2.572-2.114,5.227c-35.957,88.769-99.248,245-99.4,245.414l-1.434,3.559c-1.82,4.081-4.99,9.914-9.476,13.179,0,0,.157-.074.211-.092l-60.616,44.123,28.87-70.545,2.6-6.365h.01m64.973,86.256a30.229,30.229,0,0,1-19.182,7.034c-19.863.11-56.859.349-79.23.5l71.564-52.1c5.248-3.018,11.857-2.412,11.857-2.412h71.149Zm184.213-357.258c-.211.541-.414,1.1-.634,1.66-2,5.329-4.311,11.446-6.847,18.2-.267.706-.534,1.413-.8,2.128q-.731,1.9-1.471,3.879c-.533,1.421-1.075,2.88-1.636,4.347-3.245,8.6-6.773,17.985-10.524,27.927q-1.489,3.962-3.024,8.034c-2.05,5.429-4.154,11.005-6.287,16.683q-1.53,4.058-3.088,8.18c-.083.211-.157.422-.24.642q-1.074,2.861-2.168,5.75-1.822,4.829-3.658,9.7c-.607,1.614-1.214,3.219-1.819,4.842-.378.991-.755,1.981-1.122,2.972-.662,1.761-1.324,3.522-2,5.292-.828,2.219-1.673,4.439-2.5,6.658-.754,2-1.517,4-2.261,6-6.048,16.012-12.1,32.1-17.95,47.6-.368.972-.735,1.935-1.094,2.9-3.51,9.291-6.931,18.361-10.212,27.065-.377.991-.753,1.99-1.121,2.972s-.745,1.963-1.112,2.944-.735,1.944-1.094,2.907c-.092.23-.175.459-.258.679-.5,1.329-.992,2.641-1.5,3.952v.009c-.486,1.312-.983,2.6-1.47,3.889-5.018,13.307-9.568,25.376-13.438,35.593-.239.652-.487,1.293-.726,1.926-1.361,3.6-2.628,6.97-3.8,10.052-.331.88-.662,1.733-.974,2.568-1.1,2.926-2.105,5.567-2.988,7.9h-.009l-3.63,9.557a4.217,4.217,0,0,1-3.814,2.384h-77.943a2.19,2.19,0,0,1-.258-.037h-6.636l3.282-8.2,127.805-315.538c.983-1.834,3.1-4.622,6.718-4.805h58.457l-.01-.009h15.414l-3.308,8.85a1.824,1.824,0,0,0-.065.211.073.073,0,0,1-.009.028c-.018.046-.065.174-.147.376-.018.064-.046.138-.073.22-.34.9-1.039,2.751-2.059,5.457C-2795.368,965.32-2797.373,970.639-2799.864,977.27Z" transform="translate(3105.88 -934)" fill="url(#linear-gradient-2)"/>
    </g>
  </g>
  <path id="Path_902" data-name="Path 902" d="M-3102.653,1429.125q-.823,0-1.637.042a40.119,40.119,0,0,0-36.139-22.683,40.126,40.126,0,0,0-36.409,23.254,32.466,32.466,0,0,0-6.288-.613,32.238,32.238,0,0,0-32.239,32.238h144.95A32.238,32.238,0,0,0-3102.653,1429.125Z" transform="translate(3619.889 -1312.403)" fill="#655c90"/>
  <rect id="Rectangle_33" data-name="Rectangle 33" width="1134" height="1112" fill="url(#linear-gradient)"/>
  <path id="Path_804" data-name="Path 804" d="M-3180.939,1401.478q-1.628,0-3.235.083a79.324,79.324,0,0,0-71.454-44.848,79.337,79.337,0,0,0-71.989,45.976,64.217,64.217,0,0,0-12.432-1.211,63.741,63.741,0,0,0-63.742,63.742H-3117.2A63.741,63.741,0,0,0-3180.939,1401.478Z" transform="translate(3634.791 -779.16)" fill="#44437e"/>
  <path id="Path_805" data-name="Path 805" d="M-3066.809,1436.325q-1.084,0-2.157.055a52.877,52.877,0,0,0-47.631-29.9,52.886,52.886,0,0,0-47.988,30.648,42.8,42.8,0,0,0-8.287-.807,42.49,42.49,0,0,0-42.491,42.49h191.045A42.49,42.49,0,0,0-3066.809,1436.325Z" transform="translate(3583.318 -793.317)" fill="#655c90"/>
  <path id="Path_902-2" data-name="Path 902" d="M-3066.809,1436.325q-1.084,0-2.157.055a52.877,52.877,0,0,0-47.631-29.9,52.886,52.886,0,0,0-47.988,30.648,42.8,42.8,0,0,0-8.287-.807,42.49,42.49,0,0,0-42.491,42.49h191.045A42.49,42.49,0,0,0-3066.809,1436.325Z" transform="translate(4075.356 -1269.006)" fill="#655c90"/>
  <path id="Path_895" data-name="Path 895" d="M-3066.809,1436.325q-1.084,0-2.157.055a52.877,52.877,0,0,0-47.631-29.9,52.886,52.886,0,0,0-47.988,30.648,42.8,42.8,0,0,0-8.287-.807,42.49,42.49,0,0,0-42.491,42.49h191.045A42.49,42.49,0,0,0-3066.809,1436.325Z" transform="translate(3446.363 -366.815)" fill="#655c90"/>
  <path id="Path_806" data-name="Path 806" d="M-3569.786,984.484q-1.482,0-2.947.076a72.247,72.247,0,0,0-65.08-40.847,72.259,72.259,0,0,0-65.567,41.876,58.444,58.444,0,0,0-11.324-1.1,58.056,58.056,0,0,0-58.056,58.056h261.03A58.055,58.055,0,0,0-3569.786,984.484Z" transform="translate(4597.76 -164.559)" fill="#655c90"/>
  <g id="Mask_Group_10" data-name="Mask Group 10" transform="translate(403 570.854)" clip-path="url(#clip-path-2)">
    <g id="Group_1889" data-name="Group 1889" transform="translate(-9.381 25.109)">
      <path id="Path_801" data-name="Path 801" d="M-2358.854,1428.763l-35.7-84.41-1.079-2.55-29.208-69.046-25.815-61.043-30.419-71.9-1.757-4.158-4.664-11.025a5.11,5.11,0,0,0-4.979-3.131l-93.971,4.473-40.353,109.262a7.758,7.758,0,0,0,.024,5.356l73.025,191.737,24.992,65.6a35.343,35.343,0,0,0,32.854,22.6h85.163l7.4-11.641,9.945-15.654,35.071-55.181A14.156,14.156,0,0,0-2358.854,1428.763Zm-153.949,64.174c-.035-.084-.072-.182-.108-.29-.1-.218-.193-.5-.327-.822-.1-.254-.206-.544-.338-.882-.181-.5-.412-1.076-.667-1.741-.134-.375-.291-.762-.448-1.172-.388-1.04-.836-2.212-1.345-3.53-.121-.327-.255-.664-.387-1-.388-1.027-.812-2.151-1.272-3.336-.23-.628-.485-1.281-.739-1.946-1.938-5.078-4.313-11.29-7.014-18.386-.485-1.257-.97-2.55-1.478-3.868-.254-.653-.509-1.318-.763-2.007-2.411-6.3-5.04-13.176-7.814-20.465q-1.163-3.046-2.362-6.189-.927-2.412-1.854-4.859c-.194-.5-.388-.991-.569-1.5-.206-.532-.412-1.076-.618-1.608-.545-1.439-1.1-2.889-1.66-4.34-.629-1.668-1.284-3.373-1.937-5.076-3.574-9.357-7.281-19.087-11.049-28.939-.678-1.789-1.368-3.59-2.047-5.391s-1.381-3.59-2.06-5.392c-.7-1.813-1.381-3.614-2.071-5.415-2.4-6.31-4.81-12.62-7.2-18.87-1.369-3.565-2.726-7.119-4.058-10.625-.037-.109-.085-.23-.134-.339-.617-1.643-1.248-3.275-1.865-4.907-5.343-14-10.455-27.379-15.033-39.407-.546-1.414-1.08-2.8-1.6-4.182-1.66-4.364-3.246-8.522-4.749-12.439-.5-1.305-.981-2.575-1.453-3.82s-.945-2.465-1.394-3.663-.908-2.357-1.332-3.481c-.061-.169-.134-.338-.194-.507-.363-.955-.715-1.886-1.067-2.793-.29-.761-.569-1.511-.847-2.236s-.545-1.439-.812-2.128a1.475,1.475,0,0,1-.085-.206c-.363-.967-.714-1.9-1.065-2.792-1.2-3.13-2.218-5.814-3.053-8a18.7,18.7,0,0,1-.049-13.224l25.38-68.732,99.01,267.576a40.488,40.488,0,0,1,1.7,10.758,15.372,15.372,0,0,1-1.574,7.434l-2.083,3.178-27.391,41.884C-2512.682,1493.25-2512.73,1493.142-2512.8,1492.937Zm102.524-3.662-9.5,14.819h-79.592c-.17-.35-.133-.266-.314-.592l27.862-42.622,4.046-6.189c1.684-2.151,4.883-5.5,8.855-5.5h74.334Zm-48.566-56.619c-4.725-.279-7.415-4.631-8.48-6.915l-104.4-282.13a1.443,1.443,0,0,1,1.3-1.934l68.106-3.227a3.9,3.9,0,0,1,3.779,2.369l2.884,6.829,19.177,45.329,46.615,110.2,20.147,47.639,34.646,81.919Z" transform="translate(3015.497 -969.739)" fill="url(#linear-gradient-2)"/>
      <path id="Path_802" data-name="Path 802" d="M-2789.285,934a19.5,19.5,0,0,0-9.486,2.563l-76.853,50.9-32.394,21.456a10.21,10.21,0,0,0-3.852,4.691l-13.253,32.419-44.351,108.549-8.1,19.836-7.39,18.083-9.461,23.136-39.238,96.038-2.98,7.289-12.514,30.631-4.326,10.576-37.25,91.155v-.024l-15.144,37.061h4.434c.036,0,.062.037.11.037l4.19-.037h5.682v-.024c25.8-.157,94.988-.58,120.781-.725a56.742,56.742,0,0,0,36.039-13.2l92.069-77.011c3.4-2.878,6.4-4.9,7.813-8.631l157.9-418.384L-2663.127,934Zm-198.529,308.723,12.538-30.643,8.88-21.7,9.025-22.036,50.057-122.317,9.146-22.35a7.367,7.367,0,0,1,2.762-3.372l32.673-21.735,47.221-31.416c-.34.834-12.09,29.857-29.16,71.971v.012q-1.362,3.389-2.786,6.889c-47.391,117-130.81,322.915-131.016,323.459l-1.89,4.691c-2.4,5.378-6.577,13.067-12.49,17.37,0,0,.207-.1.279-.121l-79.894,58.155,38.051-92.979,3.428-8.389h.013m85.635,113.686a39.841,39.841,0,0,1-25.281,9.271c-26.179.146-74.94.46-104.426.653l94.322-68.671c6.917-3.977,15.628-3.179,15.628-3.179h93.776Zm242.795-470.87c-.278.713-.545,1.451-.835,2.188-2.641,7.023-5.681,15.086-9.025,23.982-.352.931-.7,1.862-1.054,2.8q-.963,2.5-1.938,5.113c-.7,1.874-1.417,3.8-2.156,5.73-4.277,11.339-8.928,23.7-13.871,36.808q-1.963,5.222-3.986,10.589c-2.7,7.156-5.476,14.505-8.286,21.988q-2.017,5.349-4.07,10.782c-.11.278-.207.556-.317.847q-1.416,3.771-2.858,7.579-2.4,6.364-4.822,12.789c-.8,2.127-1.6,4.243-2.4,6.382-.5,1.306-.995,2.611-1.479,3.917-.873,2.321-1.745,4.642-2.641,6.974-1.091,2.925-2.2,5.85-3.295,8.775-.994,2.636-2,5.271-2.98,7.906-7.971,21.1-15.955,42.307-23.659,62.735-.485,1.282-.969,2.551-1.441,3.819-4.627,12.245-9.134,24.2-13.46,35.672-.5,1.306-.992,2.623-1.477,3.917s-.982,2.587-1.466,3.88-.969,2.562-1.441,3.832c-.12.3-.23.6-.339.9-.655,1.752-1.308,3.481-1.976,5.209v.012c-.641,1.729-1.3,3.433-1.937,5.126-6.614,17.539-12.611,33.446-17.711,46.912-.315.859-.642,1.7-.957,2.539-1.793,4.75-3.464,9.187-5,13.248-.436,1.16-.872,2.284-1.284,3.385-1.454,3.856-2.774,7.337-3.937,10.407h-.012l-4.785,12.6a5.557,5.557,0,0,1-5.027,3.143H-2957.2a2.877,2.877,0,0,1-.34-.048h-8.746l4.326-10.806,168.449-415.882c1.3-2.417,4.082-6.091,8.855-6.333h77.047l-.012-.012h20.315l-4.36,11.665a2.508,2.508,0,0,0-.085.278.1.1,0,0,1-.012.036c-.024.061-.085.23-.194.5-.024.085-.061.181-.1.29-.449,1.184-1.369,3.626-2.714,7.192C-2696.622,975.28-2699.264,982.29-2702.547,991.03Z" transform="translate(3105.88 -934)" fill="url(#linear-gradient-2)"/>
    </g>
  </g>
  <path id="Path_803" data-name="Path 803" d="M-3568.843,984.674q-1.489,0-2.961.076a72.583,72.583,0,0,0-65.382-41.037,72.6,72.6,0,0,0-65.872,42.07,58.724,58.724,0,0,0-11.376-1.109A58.325,58.325,0,0,0-3772.76,1043h262.243A58.325,58.325,0,0,0-3568.843,984.674Z" transform="translate(3873.139 -819.713)" fill="#44437e"/>
</svg>
